<?xml version="1.0" encoding="utf-8"?><svg xml:space="preserve" viewBox="0 0 100 100" y="0px" x="0px" xmlns:xlink="http://www.w3.org/1999/xlink" xmlns="http://www.w3.org/2000/svg" id="圖層_1" version="1.1" width="47px" height="47px" style="width:100%;height:100%;background-size:initial;background-repeat-y:initial;background-repeat-x:initial;background-position-y:initial;background-position-x:initial;background-origin:initial;background-image:initial;background-color:rgb(255, 255, 255);background-clip:initial;background-attachment:initial;animation-play-state:paused" ><g class="ldl-scale" style="transform-origin:50% 50%;transform:rotate(0deg) scale(0.8, 0.8);animation-play-state:paused" ><path d="M82.613,39.6131c0-18.7791-15.8721-33.8512-34.9331-32.5327C31.6125,8.1918,18.5928,21.2014,17.4692,37.268 C16.5521,50.3809,23.395,61.98,33.8651,67.9513c3.6582,2.0863,6.3946,5.4739,7.5531,9.5227l3.2453,11.3421 c0.6135,2.1443,2.3847,3.8399,4.5955,4.1345c2.7469,0.3661,5.2778-1.3394,6.0191-3.9303l3.3026-11.5425 c1.1269-3.9385,3.6833-7.3694,7.2624-9.3622C75.8449,62.5469,82.613,51.8732,82.613,39.6131z" fill="#849B87" style="fill:rgb(132, 155, 135);animation-play-state:paused" ></path>
<g style="animation-play-state:paused" ><line y2="40" x2="63.5" y1="40" x1="36.5" stroke-miterlimit="10" stroke-linejoin="round" stroke-linecap="round" stroke-width="7" stroke="#F5E169" fill="none" style="stroke:rgb(245, 225, 105);animation-play-state:paused" ></line>
<line y2="26.5" x2="50" y1="53.5" x1="50" stroke-miterlimit="10" stroke-linejoin="round" stroke-linecap="round" stroke-width="7" stroke="#F5E169" fill="none" style="stroke:rgb(245, 225, 105);animation-play-state:paused" ></line></g>
<metadata xmlns:d="https://loading.io/stock/" style="animation-play-state:paused" ><d:name style="animation-play-state:paused" >marker</d:name>


<d:tags style="animation-play-state:paused" >marker,map,location,plus,add,pin</d:tags>


<d:license style="animation-play-state:paused" >by</d:license>


<d:slug style="animation-play-state:paused" >yl79qq</d:slug></metadata></g><!-- generated by https://loading.io/ --></svg>